<?xml version="1.0" standalone="no"?>
<!DOCTYPE svg PUBLIC "-//W3C//DTD SVG 20010904//EN"
 "http://www.w3.org/TR/2001/REC-SVG-20010904/DTD/svg10.dtd">
<svg version="1.0" xmlns="http://www.w3.org/2000/svg"
 width="600.000000pt" height="600.000000pt" viewBox="0 0 600.000000 600.000000"
 preserveAspectRatio="xMidYMid meet">
<metadata>
Created by potrace 1.16, written by Peter Selinger 2001-2019
</metadata>
<g transform="translate(0.000000,600.000000) scale(0.100000,-0.100000)"
fill="#000000" stroke="none">
<path d="M1803 5073 l-1192 -688 -1 -1385 0 -1385 203 -117 c111 -64 647 -373
1191 -688 544 -314 995 -570 1001 -568 6 2 545 311 1198 688 l1187 685 0 1385
0 1385 -1184 682 c-651 376 -1190 685 -1197 688 -8 3 -550 -304 -1206 -682z
m1893 -108 l94 -56 0 -117 0 -118 -96 -56 -96 -56 -99 57 -99 56 0 117 0 117
98 55 c53 31 99 56 100 56 2 0 46 -25 98 -55z m-1273 2 c55 -24 61 -39 68
-171 4 -67 10 -131 14 -143 6 -18 2 -25 -20 -35 -25 -11 -29 -10 -42 9 l-15
22 -27 -20 c-86 -63 -201 -19 -201 77 0 83 78 133 177 115 l43 -8 0 33 c0 52
-23 67 -94 62 -34 -3 -69 -8 -78 -13 -22 -9 -36 20 -21 44 22 35 138 52 196
28z m837 -7 c12 -6 20 -21 20 -37 0 -21 -3 -24 -22 -19 -67 19 -103 18 -128
-2 -35 -29 -18 -52 61 -80 78 -27 109 -59 109 -110 0 -70 -55 -112 -145 -112
-68 0 -115 23 -115 56 0 23 3 25 23 19 45 -14 124 -17 146 -6 13 7 21 21 21
37 0 26 -3 28 -113 68 -100 37 -105 147 -7 191 38 17 114 14 150 -5z m-664 -2
c4 -6 21 -68 39 -137 l31 -125 28 119 c36 151 39 157 79 153 l32 -3 30 -122
c17 -67 33 -124 35 -127 3 -3 19 45 34 107 36 141 40 147 76 147 22 0 30 -5
30 -17 0 -24 -90 -315 -103 -330 -5 -7 -22 -13 -38 -13 -34 0 -40 11 -64 110
-9 36 -21 83 -27 105 l-11 40 -32 -125 -31 -125 -39 0 -39 0 -52 170 c-29 93
-50 173 -48 177 8 12 62 9 70 -4z m622 -465 c2 -9 -8 -13 -31 -13 -38 0 -47
-12 -47 -61 l0 -29 75 0 75 0 0 -115 c0 -96 -3 -115 -15 -115 -12 0 -15 18
-15 105 l0 105 -60 0 -60 0 0 -105 c0 -87 -3 -105 -15 -105 -12 0 -15 18 -15
105 l0 105 -25 0 c-14 0 -25 5 -25 10 0 6 11 10 25 10 23 0 25 4 25 42 0 55
23 80 69 76 19 -2 36 -9 39 -15z m582 -163 l0 -169 -27 0 c-16 0 -43 -3 -61
-7 -43 -8 -89 12 -107 47 -31 60 -10 162 40 189 23 12 73 10 108 -5 15 -6 17
0 17 54 0 48 3 61 15 61 13 0 15 -26 15 -170z m-772 133 c5 -17 -26 -29 -40
-15 -6 6 -7 15 -3 22 9 14 37 9 43 -7z m272 2 c0 -21 -30 -31 -40 -14 -11 17
-3 29 21 29 10 0 19 -7 19 -15z m-430 -40 c0 -33 2 -35 35 -35 19 0 35 -4 35
-10 0 -5 -16 -10 -35 -10 l-36 0 3 -92 3 -93 33 0 c41 0 41 -28 0 -33 -58 -7
-67 9 -70 116 -3 92 -4 97 -25 100 -13 2 -23 7 -23 12 0 5 10 10 23 12 17 2
23 11 25 36 5 46 32 43 32 -3z m-516 -31 c34 -13 15 -29 -34 -29 -67 0 -84
-18 -84 -91 0 -73 26 -99 91 -91 31 3 43 1 43 -8 0 -27 -74 -34 -119 -11 -35
19 -51 55 -51 117 0 45 4 55 34 85 34 34 78 44 120 28z m201 0 c22 -9 45 -57
45 -94 l0 -30 -86 0 -86 0 6 -27 c12 -48 43 -66 104 -60 39 4 52 2 52 -8 0
-17 -23 -25 -76 -25 -56 0 -79 12 -99 50 -18 36 -19 116 -1 149 23 42 91 64
141 45z m212 -11 c2 -6 -10 -14 -27 -18 -52 -11 -60 -28 -60 -121 0 -68 -3
-84 -15 -84 -12 0 -15 19 -15 115 0 96 3 115 15 115 8 0 15 -4 15 -10 0 -5 15
-3 33 5 35 15 49 15 54 -2z m738 11 c22 -9 45 -57 45 -94 l0 -30 -86 0 -86 0
6 -27 c12 -48 43 -66 104 -60 39 4 52 2 52 -8 0 -7 -7 -16 -16 -19 -25 -10
-104 -7 -125 4 -67 37 -64 195 5 229 24 11 77 14 101 5z m-485 -119 c0 -96 -3
-115 -15 -115 -12 0 -15 19 -15 115 0 96 3 115 15 115 12 0 15 -19 15 -115z
m1430 -395 c0 -7 -490 -10 -1450 -10 -960 0 -1450 3 -1450 10 0 7 490 10 1450
10 960 0 1450 -3 1450 -10z m-1436 -518 c38 -108 71 -203 74 -210 3 -10 -11
-12 -64 -10 l-69 3 -9 38 -10 37 -62 0 -62 0 -9 -37 -9 -38 -62 -3 c-46 -2
-62 0 -62 10 0 7 29 96 65 198 36 102 68 191 70 198 3 8 27 12 72 12 l68 0 69
-198z m226 -12 l0 -210 -60 0 -60 0 0 210 0 210 60 0 60 0 0 -210z m-339 -360
c22 -12 27 -68 7 -88 -17 -17 -78 -15 -100 5 -22 20 -23 42 -2 71 17 24 61 30
95 12z m423 -6 c9 -8 16 -26 16 -39 0 -33 -26 -55 -65 -55 -58 0 -85 51 -48
92 20 22 76 24 97 2z m-1744 -40 c56 -23 80 -60 80 -124 0 -93 -38 -132 -140
-140 l-65 -5 -3 -67 -3 -68 -54 0 -55 0 0 210 0 210 100 0 c68 0 112 -5 140
-16z m1100 -54 l0 -40 40 0 40 0 0 -40 0 -40 -40 0 -40 0 0 -54 c0 -75 6 -86
46 -86 33 0 34 -1 34 -39 0 -45 -9 -51 -82 -51 -41 0 -54 5 -79 29 -28 28 -29
34 -29 115 0 79 -2 86 -20 86 -29 0 -29 66 0 75 12 4 24 21 30 46 10 38 12 39
55 39 l45 0 0 -40z m420 0 l0 -40 40 0 40 0 0 -40 0 -40 -40 0 -41 0 3 -67 3
-68 38 -3 c36 -3 37 -4 37 -42 0 -44 -10 -50 -76 -50 -92 0 -113 27 -114 143
0 86 0 87 -25 87 -22 0 -25 4 -25 34 0 28 4 35 25 40 16 4 27 15 31 34 11 51
12 52 59 52 l45 0 0 -40z m-1182 -87 l3 -52 -48 -3 -48 -3 -3 -103 -3 -103
-57 3 -57 3 -3 153 -3 152 50 0 c34 0 51 -4 55 -15 5 -13 11 -13 43 5 56 30
67 24 71 -37z m252 42 c40 -21 52 -68 48 -195 l-3 -105 -39 -3 c-21 -2 -43 1
-48 6 -6 6 -24 4 -49 -6 -81 -32 -159 24 -145 103 10 52 47 78 116 83 62 5 75
17 45 42 -15 12 -79 9 -118 -6 -14 -5 -17 0 -17 35 0 37 3 41 33 50 51 15 145
13 177 -4z m319 4 c27 -9 31 -16 31 -45 l0 -34 -55 0 c-47 0 -57 -3 -71 -25
-18 -27 -14 -89 6 -109 6 -6 36 -10 66 -10 l54 2 0 -34 c0 -45 -25 -57 -111
-52 -61 3 -73 7 -100 34 -51 51 -60 148 -21 217 32 54 128 81 201 56z m1139
-9 c48 -29 72 -75 72 -138 0 -66 -23 -118 -64 -144 -25 -15 -45 -18 -103 -16
-64 3 -76 7 -103 33 -31 30 -50 78 -50 130 0 47 40 116 80 137 47 24 126 24
168 -2z m396 -1 c26 -20 26 -21 26 -160 l0 -139 -55 0 -55 0 0 109 c0 116 -7
135 -48 124 -20 -5 -22 -12 -24 -117 l-3 -111 -57 -3 -58 -3 0 156 0 155 49 0
c27 0 51 -5 53 -10 2 -7 16 -6 38 4 50 22 102 20 134 -5z m307 5 c33 -17 59
-66 59 -113 0 -58 -5 -61 -96 -61 -46 0 -84 -4 -84 -9 0 -5 8 -17 17 -26 14
-14 30 -16 85 -13 l68 5 0 -34 c0 -42 -24 -53 -118 -53 -86 0 -123 21 -147 84
-20 53 -16 133 10 173 39 59 139 82 206 47z m327 -41 l3 -52 -53 -3 -53 -3 -3
-102 -3 -103 -54 0 -55 0 0 155 0 155 46 0 c38 0 47 -4 51 -20 5 -19 7 -19 22
-6 21 19 62 36 81 33 11 -2 16 -17 18 -54z m-1740 -105 l-3 -153 -57 -3 -58
-3 0 156 0 155 60 0 61 0 -3 -152z m412 -3 l0 -155 -55 0 -55 0 0 155 0 155
55 0 55 0 0 -155z m1120 -445 c0 -7 -490 -10 -1450 -10 -960 0 -1450 3 -1450
10 0 7 490 10 1450 10 960 0 1450 -3 1450 -10z m-2800 -323 c45 -28 63 -113
35 -167 -22 -42 -53 -60 -107 -60 -68 0 -109 37 -115 106 -6 63 15 110 60 130
35 15 95 11 127 -9z m2161 0 c64 -40 62 -166 -3 -211 -36 -26 -111 -21 -147
10 -70 59 -43 200 42 217 30 7 86 -2 108 -16z m-2451 -12 c0 -23 -4 -25 -45
-25 -41 0 -45 -2 -45 -25 0 -22 4 -25 35 -25 31 0 35 -3 35 -25 0 -22 -4 -25
-34 -25 -34 0 -35 -1 -38 -42 -3 -40 -5 -43 -35 -46 l-33 -3 0 120 0 121 80 0
c79 0 80 0 80 -25z m530 -60 c0 -73 3 -86 19 -95 36 -19 51 11 51 101 l0 79
36 0 36 0 -4 -96 c-3 -91 -5 -97 -31 -120 -40 -34 -114 -34 -151 1 -25 23 -26
29 -26 120 l0 95 35 0 35 0 0 -85z m373 18 l37 -68 0 68 0 67 30 0 30 0 0
-120 0 -120 -34 0 c-32 0 -37 5 -73 68 l-38 67 -3 -68 c-3 -68 -3 -68 -30 -65
l-27 3 -3 118 -3 117 39 0 c36 0 39 -2 75 -67z m397 40 c39 -35 49 -92 26
-146 -19 -46 -63 -67 -141 -67 l-55 0 0 120 0 120 70 0 c62 0 73 -3 100 -27z
m332 -83 c21 -58 38 -111 38 -117 0 -8 -13 -13 -35 -13 -29 0 -36 4 -41 25 -5
20 -12 25 -40 25 -28 0 -35 -5 -40 -25 -5 -21 -12 -25 -40 -25 -19 0 -34 5
-34 11 0 7 17 61 38 121 l37 109 40 -3 40 -3 37 -105z m328 86 c0 -21 -6 -25
-32 -28 l-33 -3 -3 -93 -3 -93 -32 3 -32 3 -3 93 -3 92 -29 0 c-25 0 -30 4
-30 25 l0 25 100 0 c99 0 100 0 100 -24z m180 -96 l0 -120 -35 0 -35 0 0 120
0 120 35 0 35 0 0 -120z m590 54 l35 -66 3 66 c3 66 3 66 32 66 l30 0 0 -121
0 -120 -37 3 c-33 3 -39 8 -72 68 l-36 65 -3 -67 c-3 -68 -3 -68 -32 -68 l-30
0 0 120 0 120 38 0 c35 0 38 -3 72 -66z m401 -44 c21 -58 38 -111 38 -118 1
-9 -10 -12 -36 -10 -31 2 -39 7 -41 26 -3 18 -10 22 -38 22 -28 0 -36 -5 -44
-25 -7 -19 -17 -25 -40 -25 -17 0 -30 5 -30 13 0 6 17 61 37 120 l38 108 39
-3 39 -3 38 -105z m219 20 l0 -90 45 0 c43 0 45 -1 45 -30 l0 -30 -80 0 -80 0
0 120 0 120 35 0 35 0 0 -90z"/>
<path d="M2298 4759 c-22 -13 -24 -72 -3 -89 22 -18 86 -5 108 21 21 26 22 65
1 73 -24 9 -87 7 -106 -5z"/>
<path d="M3649 4351 c-19 -16 -23 -28 -23 -76 0 -49 3 -60 24 -77 18 -15 34
-18 58 -14 53 8 62 21 62 92 0 54 -3 65 -22 78 -30 21 -71 20 -99 -3z"/>
<path d="M2458 4353 c-9 -10 -19 -28 -22 -40 -7 -22 -5 -23 59 -23 74 0 88 13
61 55 -20 30 -75 35 -98 8z"/>
<path d="M3408 4353 c-9 -10 -19 -28 -22 -40 -7 -22 -5 -23 63 -23 78 0 88 11
55 58 -19 27 -74 30 -96 5z"/>
<path d="M2857 3381 c-9 -33 -17 -63 -17 -66 0 -3 16 -5 35 -5 39 0 39 -4 11
92 l-12 40 -17 -61z"/>
<path d="M1452 2818 l3 -53 35 2 c34 1 60 23 60 50 0 24 -39 53 -71 53 l-30 0
3 -52z"/>
<path d="M2055 2656 c-19 -14 -19 -16 -4 -31 23 -24 61 -11 57 18 -4 27 -27
32 -53 13z"/>
<path d="M3516 2758 c-31 -44 -15 -138 23 -138 29 0 43 26 43 80 0 75 -34 104
-66 58z"/>
<path d="M4222 2768 c-21 -21 -14 -28 29 -28 33 0 40 3 37 18 -4 21 -48 28
-66 10z"/>
<path d="M1546 1868 c-35 -49 -11 -112 39 -106 23 2 31 10 38 34 19 66 -42
123 -77 72z"/>
<path d="M3706 1868 c-9 -12 -16 -35 -16 -50 0 -27 30 -68 50 -68 20 0 50 41
50 68 0 62 -54 93 -84 50z"/>
<path d="M2560 1825 c0 -55 3 -65 18 -65 33 0 47 18 47 60 0 30 -6 46 -20 56
-37 27 -45 18 -45 -51z"/>
<path d="M2907 1846 c-11 -29 -8 -46 8 -46 16 0 18 14 6 44 -7 18 -8 18 -14 2z"/>
<path d="M4405 1846 c-3 -9 -7 -23 -10 -31 -3 -10 2 -15 16 -15 16 0 18 5 13
28 -9 35 -12 39 -19 18z"/>
</g>
</svg>
