<?xml version="1.0" standalone="no"?>
<!DOCTYPE svg PUBLIC "-//W3C//DTD SVG 20010904//EN"
 "http://www.w3.org/TR/2001/REC-SVG-20010904/DTD/svg10.dtd">
<svg version="1.0" xmlns="http://www.w3.org/2000/svg"
 width="600.000000pt" height="600.000000pt" viewBox="0 0 600.000000 600.000000"
 preserveAspectRatio="xMidYMid meet">
<metadata>
Created by potrace 1.16, written by Peter Selinger 2001-2019
</metadata>
<g transform="translate(0.000000,600.000000) scale(0.100000,-0.100000)"
fill="#000000" stroke="none">
<path d="M1803 5073 l-1192 -688 -1 -1385 0 -1385 243 -139 c133 -77 669 -387
1191 -688 523 -302 955 -547 961 -546 7 2 546 311 1198 688 l1187 685 0 1385
0 1385 -1183 682 c-651 375 -1189 685 -1197 688 -9 3 -521 -287 -1207 -682z
m1898 -110 l100 -58 -3 -114 -3 -115 -99 -57 -98 -56 -99 56 -98 56 -1 116 0
117 98 56 c53 31 98 56 100 56 1 0 48 -26 103 -57z m-1278 4 c55 -24 61 -39
68 -171 4 -67 10 -131 14 -143 6 -18 2 -25 -20 -35 -25 -11 -29 -10 -42 9
l-15 22 -27 -20 c-60 -45 -158 -33 -186 22 -52 100 38 193 163 170 l42 -8 0
33 c0 52 -23 67 -94 62 -34 -3 -69 -8 -78 -13 -22 -9 -36 20 -21 44 22 35 138
52 196 28z m837 -7 c12 -6 20 -21 20 -37 0 -21 -3 -24 -22 -19 -67 19 -103 18
-128 -2 -35 -29 -18 -52 61 -80 78 -27 109 -59 109 -110 0 -70 -55 -112 -145
-112 -68 0 -115 23 -115 56 0 23 3 25 23 19 12 -4 45 -9 73 -12 65 -7 96 8 92
45 -2 22 -12 30 -53 44 -126 45 -158 87 -123 164 25 55 141 80 208 44z m-662
-7 c5 -10 22 -69 37 -131 16 -62 32 -107 35 -100 4 7 17 58 30 113 29 129 33
137 73 133 l32 -3 31 -122 c17 -68 33 -125 36 -128 3 -3 18 45 33 107 35 142
38 148 77 148 29 0 30 -2 25 -33 -3 -18 -26 -99 -52 -180 l-47 -147 -34 0
c-39 0 -44 8 -69 110 -9 36 -21 83 -27 105 l-11 40 -31 -125 -31 -125 -39 0
-40 0 -48 155 c-58 187 -59 200 -18 200 18 0 33 -7 38 -17z m620 -460 c2 -9
-8 -13 -31 -13 -38 0 -47 -12 -47 -61 l0 -29 75 0 75 0 0 -115 c0 -96 -3 -115
-15 -115 -12 0 -15 18 -15 105 l0 105 -60 0 -60 0 0 -105 c0 -87 -3 -105 -15
-105 -12 0 -15 18 -15 105 0 98 -1 105 -20 105 -11 0 -20 5 -20 10 0 6 9 10
20 10 17 0 20 7 20 42 0 55 23 80 69 76 19 -2 36 -9 39 -15z m582 -163 l0
-169 -27 0 c-16 0 -43 -3 -61 -7 -69 -14 -122 39 -122 121 0 99 73 149 163
110 15 -6 17 0 17 54 0 48 3 61 15 61 13 0 15 -26 15 -170z m-770 135 c0 -9
-7 -18 -16 -22 -18 -7 -39 11 -30 26 11 17 46 13 46 -4z m268 -2 c-5 -26 -38
-29 -38 -4 0 15 6 21 21 21 14 0 19 -5 17 -17z m-428 -38 c0 -33 2 -35 35 -35
19 0 35 -4 35 -10 0 -5 -16 -10 -35 -10 l-36 0 3 -92 3 -93 33 0 c41 0 41 -28
0 -33 -58 -7 -67 9 -70 116 -3 92 -4 97 -25 100 -31 5 -29 22 2 22 22 0 25 4
25 35 0 24 5 35 15 35 10 0 15 -11 15 -35z m-516 -31 c34 -13 15 -29 -34 -29
-67 0 -84 -18 -84 -91 0 -73 26 -99 91 -91 31 3 43 1 43 -8 0 -28 -74 -34
-119 -10 -38 19 -55 63 -49 127 4 42 11 57 37 80 31 28 77 36 115 22z m201 0
c22 -9 45 -57 45 -94 l0 -30 -86 0 -86 0 6 -27 c12 -48 43 -66 104 -60 39 4
52 2 52 -8 0 -17 -23 -25 -76 -25 -56 0 -79 12 -99 50 -18 36 -19 116 -1 149
23 42 91 64 141 45z m212 -11 c2 -6 -9 -14 -24 -18 -54 -13 -63 -30 -63 -122
0 -67 -3 -83 -15 -83 -12 0 -15 19 -15 115 0 96 3 115 15 115 8 0 15 -4 15
-10 0 -5 15 -3 33 5 35 15 49 15 54 -2z m758 -8 c18 -18 25 -35 25 -65 l0 -40
-86 0 -86 0 6 -27 c12 -48 43 -66 104 -60 39 4 52 2 52 -8 0 -7 -7 -16 -16
-19 -30 -11 -105 -6 -129 10 -62 41 -57 191 8 222 41 20 96 14 122 -13z m-505
-100 c0 -96 -3 -115 -15 -115 -12 0 -15 19 -15 115 0 96 3 115 15 115 12 0 15
-19 15 -115z m1440 -395 c0 -7 -492 -10 -1455 -10 -963 0 -1455 3 -1455 10 0
7 492 10 1455 10 963 0 1455 -3 1455 -10z m-1788 -487 c3 -176 3 -178 26 -181
18 -3 22 -10 22 -41 0 -37 -2 -39 -39 -45 -46 -7 -98 9 -111 34 -6 11 -10 106
-10 214 l0 196 55 0 55 0 2 -177z m1098 -43 l0 -220 -49 0 c-28 0 -51 5 -53
11 -3 9 -9 9 -25 0 -31 -16 -105 -14 -131 5 -36 25 -53 70 -53 139 0 71 16
112 58 145 23 18 38 21 81 18 l52 -5 0 64 0 63 60 0 60 0 0 -220z m-1282 194
c18 -5 22 -13 22 -50 l0 -43 -70 2 c-64 2 -72 0 -97 -26 -24 -24 -28 -35 -28
-87 0 -52 4 -63 28 -87 25 -26 33 -28 97 -26 l70 2 0 -44 c0 -52 -6 -55 -106
-55 -87 0 -130 15 -166 58 -37 45 -51 94 -46 172 7 126 74 189 203 189 39 1
80 -2 93 -5z m510 -120 c87 -64 82 -225 -9 -279 -45 -26 -133 -26 -177 1 -48
28 -75 92 -70 160 5 63 29 101 79 127 45 24 138 19 177 -9z m222 -86 c0 -57 4
-109 9 -116 4 -8 19 -12 32 -10 23 3 24 5 27 116 l3 112 60 0 60 0 -3 -152 -3
-153 -44 -3 c-32 -2 -47 1 -53 12 -8 14 -12 14 -31 2 -52 -33 -124 -27 -153
12 -9 12 -13 57 -14 150 l0 132 55 0 55 0 0 -102z m-301 -369 c13 -24 13 -29
-2 -53 -14 -20 -26 -26 -55 -26 -47 0 -62 14 -62 57 0 39 21 54 70 50 25 -1
38 -9 49 -28z m409 19 c7 -7 12 -26 12 -43 0 -40 -16 -55 -60 -55 -44 0 -60
15 -60 55 0 40 16 55 60 55 20 0 41 -5 48 -12z m-1725 -51 c61 -40 82 -112 53
-182 -21 -49 -68 -75 -138 -75 l-58 0 0 -70 0 -71 -57 3 -58 3 -3 195 c-1 107
0 201 3 208 8 22 222 13 258 -11z m1087 -47 l0 -40 40 0 40 0 0 -40 0 -40 -40
0 -41 0 3 -67 3 -68 38 -3 c36 -3 37 -4 37 -42 0 -45 -9 -50 -85 -50 -42 0
-60 5 -81 24 -26 21 -28 30 -32 115 -4 81 -7 91 -23 91 -15 0 -19 7 -19 35 0
28 4 36 24 41 19 4 26 15 31 45 l7 39 49 0 49 0 0 -40z m420 0 c0 -39 1 -40
35 -40 34 0 35 -1 35 -40 0 -39 -1 -40 -35 -40 l-35 0 0 -70 0 -70 35 0 c34 0
35 -1 35 -39 0 -45 -9 -51 -80 -51 -37 0 -56 6 -77 24 -26 23 -28 30 -31 115
-4 82 -6 91 -23 91 -30 0 -27 63 5 78 16 7 26 22 30 46 7 36 8 36 56 36 l50 0
0 -40z m-1182 -87 l3 -52 -53 -3 -53 -3 -3 -102 -3 -103 -54 0 -55 0 0 155 0
155 50 0 c45 0 50 -2 50 -22 0 -20 1 -20 18 -5 22 20 62 37 82 34 11 -2 16
-17 18 -54z m268 24 c23 -27 24 -35 24 -158 l0 -129 -44 0 c-25 0 -47 4 -51 9
-3 6 -20 4 -42 -5 -73 -31 -143 10 -143 83 0 67 43 103 125 103 38 0 45 3 45
20 0 31 -70 38 -136 13 -11 -4 -14 4 -14 36 0 37 3 41 33 50 17 6 65 9 106 8
66 -2 75 -5 97 -30z m298 23 c22 -8 26 -16 26 -47 l0 -38 -50 3 c-66 5 -80 -7
-80 -69 0 -62 27 -85 90 -74 l40 7 0 -40 c0 -46 -11 -52 -100 -52 -101 0 -150
53 -150 163 0 65 28 113 80 139 39 20 105 23 144 8z m1136 -9 c50 -26 75 -74
74 -141 0 -106 -54 -160 -159 -160 -112 0 -160 53 -153 171 4 73 17 96 73 130
40 25 119 25 165 0z m400 -1 c28 -28 31 -50 28 -180 l-3 -115 -57 -3 -58 -3 0
116 c0 124 -6 138 -49 115 -19 -10 -21 -20 -21 -120 l0 -110 -55 0 -55 0 0
155 0 155 43 0 c24 0 48 -5 53 -10 7 -7 20 -6 40 5 42 22 109 20 134 -5z m331
-18 c25 -28 29 -40 29 -92 l0 -60 -90 0 c-49 0 -90 -4 -90 -8 0 -5 9 -17 20
-27 17 -15 31 -17 90 -12 l70 6 0 -35 c0 -45 -29 -57 -132 -52 -72 3 -80 5
-110 36 -30 29 -33 38 -36 107 -4 62 -1 80 17 108 30 49 73 68 145 64 51 -3
63 -8 87 -35z m297 -20 l3 -52 -50 0 -50 0 -3 -102 -3 -103 -57 -3 -58 -3 0
156 0 155 50 0 c38 0 50 -4 50 -15 0 -19 3 -19 48 5 55 30 66 24 70 -38z
m-1738 -107 l0 -156 -57 3 -58 3 -3 153 -3 152 61 0 60 0 0 -155z m420 0 l0
-155 -60 0 -60 0 0 155 0 155 60 0 60 0 0 -155z m1120 -445 c0 -7 -492 -10
-1455 -10 -963 0 -1455 3 -1455 10 0 7 492 10 1455 10 963 0 1455 -3 1455 -10z
m-2846 -314 c49 -20 66 -51 66 -116 -1 -80 -39 -120 -115 -120 -77 0 -115 42
-115 128 0 56 19 88 64 108 40 17 59 17 100 0z m2161 0 c46 -20 67 -56 67
-115 0 -78 -41 -121 -118 -121 -76 0 -114 43 -114 128 0 56 19 88 64 108 40
17 59 17 101 0z m-2435 -21 c0 -23 -4 -25 -45 -25 -41 0 -45 -2 -45 -25 0 -22
4 -25 40 -25 36 0 40 -2 40 -25 0 -22 -4 -25 -40 -25 l-40 0 0 -46 c0 -45 0
-45 -32 -42 l-33 3 -3 118 -3 117 81 0 c79 0 80 0 80 -25z m530 -54 c0 -90 15
-120 51 -101 16 9 19 22 19 95 l0 85 35 0 35 0 0 -95 c0 -88 -2 -98 -25 -120
-34 -35 -112 -35 -151 -1 -26 22 -28 29 -32 120 l-4 96 36 0 36 0 0 -79z m379
9 l36 -65 3 68 c3 67 3 67 32 67 l30 0 0 -121 0 -120 -37 3 c-35 3 -40 8 -73
67 l-35 64 -3 -67 c-3 -66 -3 -66 -32 -66 l-30 0 0 121 0 120 37 -3 c33 -3 39
-8 72 -68z m381 55 c38 -20 50 -43 50 -99 0 -89 -29 -116 -132 -124 l-68 -5 0
122 0 121 60 0 c35 0 74 -7 90 -15z m320 -17 c19 -52 70 -201 70 -205 0 -2
-16 -3 -35 -3 -29 0 -37 5 -45 25 -7 19 -17 25 -40 25 -23 0 -33 -6 -40 -25
-8 -20 -16 -25 -46 -25 -25 0 -35 4 -32 13 3 6 22 60 43 120 l38 107 37 0 c34
0 39 -4 50 -32z m360 7 c0 -22 -4 -25 -35 -25 l-35 0 0 -95 0 -95 -35 0 -35 0
0 95 0 95 -35 0 c-31 0 -35 3 -35 25 l0 25 105 0 105 0 0 -25z m170 -96 l0
-120 -32 3 -33 3 -3 118 -3 117 36 0 35 0 0 -121z m594 59 l35 -63 1 63 0 62
35 0 36 0 -3 -117 -3 -118 -35 0 c-32 0 -37 5 -72 64 l-37 64 -3 -64 c-3 -62
-4 -64 -30 -67 l-28 -3 0 120 0 121 34 0 c31 0 37 -5 70 -62z m401 -45 c21
-60 40 -114 42 -120 4 -9 -6 -13 -31 -13 -29 0 -39 5 -48 25 -9 19 -19 25 -44
25 -26 0 -33 -4 -36 -22 -2 -19 -10 -24 -40 -26 -21 -2 -38 0 -38 3 0 6 61
181 75 218 5 12 18 17 45 17 l37 0 38 -107z m215 17 l0 -90 50 0 c49 0 50 -1
50 -30 l0 -31 -82 3 -83 3 -3 118 -3 117 36 0 35 0 0 -90z"/>
<path d="M2303 4760 c-18 -7 -23 -17 -23 -43 0 -19 7 -40 15 -47 22 -18 86 -5
108 21 21 26 22 65 1 73 -22 9 -75 6 -101 -4z"/>
<path d="M3651 4351 c-26 -26 -35 -74 -21 -116 14 -42 42 -59 83 -51 49 10 57
23 57 92 0 54 -3 65 -22 78 -30 22 -74 20 -97 -3z"/>
<path d="M2458 4353 c-9 -10 -19 -28 -22 -40 -7 -22 -5 -23 63 -23 78 0 88 11
55 58 -19 27 -74 30 -96 5z"/>
<path d="M3407 4353 c-8 -10 -17 -27 -19 -38 -3 -18 3 -20 65 -23 59 -3 67 -1
67 15 0 10 -7 29 -16 41 -19 27 -74 30 -97 5z"/>
<path d="M3591 3356 c-7 -8 -15 -33 -18 -55 -7 -51 16 -91 53 -91 25 0 25 1
22 78 -3 69 -5 77 -24 80 -11 2 -26 -4 -33 -12z"/>
<path d="M2881 3361 c-18 -12 -26 -102 -12 -130 15 -26 47 -27 61 -2 16 30 12
107 -6 125 -18 18 -24 19 -43 7z"/>
<path d="M1460 2815 c0 -51 2 -55 23 -55 33 0 67 28 67 55 0 32 -25 55 -61 55
-29 0 -29 -1 -29 -55z"/>
<path d="M2063 2663 c-15 -6 -17 -39 -3 -48 20 -12 50 6 50 31 0 24 -17 30
-47 17z"/>
<path d="M3522 2767 c-18 -22 -24 -90 -10 -117 19 -36 55 -38 68 -5 29 76 -17
172 -58 122z"/>
<path d="M4220 2761 c-10 -20 -8 -21 30 -21 34 0 41 3 38 18 -5 26 -54 28 -68
3z"/>
<path d="M1530 1870 c-17 -32 -8 -91 15 -106 47 -31 86 47 55 107 -14 25 -56
25 -70 -1z"/>
<path d="M3690 1871 c-18 -34 -12 -88 11 -105 22 -15 48 -11 61 8 12 18 9 91
-4 104 -18 18 -56 14 -68 -7z"/>
<path d="M2550 1825 c0 -56 3 -65 18 -65 28 0 42 21 42 61 0 39 -20 69 -46 69
-11 0 -14 -15 -14 -65z"/>
<path d="M2890 1846 c0 -8 -3 -21 -6 -30 -4 -11 0 -16 14 -16 15 0 18 5 14 25
-5 28 -22 44 -22 21z"/>
<path d="M4386 1836 c-8 -32 -4 -39 17 -34 13 2 13 8 3 33 l-13 30 -7 -29z"/>
</g>
</svg>
