<?xml version="1.0" standalone="no"?>
<!DOCTYPE svg PUBLIC "-//W3C//DTD SVG 20010904//EN"
 "http://www.w3.org/TR/2001/REC-SVG-20010904/DTD/svg10.dtd">
<svg version="1.0" xmlns="http://www.w3.org/2000/svg"
 width="600.000000pt" height="600.000000pt" viewBox="0 0 600.000000 600.000000"
 preserveAspectRatio="xMidYMid meet">
<metadata>
Created by potrace 1.16, written by Peter Selinger 2001-2019
</metadata>
<g transform="translate(0.000000,600.000000) scale(0.100000,-0.100000)"
fill="#000000" stroke="none">
<path d="M1803 5062 l-1192 -687 -1 -991 c0 -545 -3 -1166 -7 -1381 l-6 -389
164 -96 c792 -461 2230 -1288 2239 -1288 11 0 252 138 1575 902 l820 474 0
1384 0 1384 -215 124 c-574 332 -2163 1244 -2173 1248 -7 2 -548 -305 -1204
-684z m1901 -98 l96 -56 0 -117 -1 -116 -100 -57 -101 -57 -99 57 -100 57 3
119 3 120 90 52 c50 29 95 53 101 54 6 0 55 -25 108 -56z m-1243 -22 c27 -30
29 -38 29 -117 0 -46 5 -107 11 -135 8 -39 8 -54 -1 -65 -16 -19 -44 -19 -60
0 -10 12 -17 12 -48 -5 -22 -12 -56 -20 -85 -20 -40 0 -54 5 -78 29 -24 25
-29 38 -29 78 1 83 46 117 153 116 63 -1 67 0 67 21 0 12 -7 32 -16 45 -17 24
-16 24 -154 9 -21 -3 -26 2 -28 25 -2 15 -2 27 0 27 2 0 21 7 43 15 25 9 64
14 104 12 57 -3 67 -6 92 -35z m812 10 c12 -13 17 -27 13 -37 -5 -14 -13 -16
-44 -9 -56 12 -101 9 -118 -8 -27 -26 -2 -54 69 -77 82 -28 112 -58 111 -113
-1 -31 -9 -47 -33 -72 -30 -30 -34 -31 -116 -31 -73 0 -87 3 -106 22 -30 29
-19 58 19 49 78 -19 117 -18 142 2 35 29 19 51 -56 78 -81 29 -114 61 -114
111 0 77 56 116 154 109 41 -3 65 -10 79 -24z m-666 -9 c3 -16 18 -75 33 -133
l27 -105 22 95 c43 183 37 170 81 170 l38 0 28 -117 c15 -65 30 -124 34 -131
3 -7 16 32 29 85 34 144 44 163 80 163 16 0 32 -4 35 -8 3 -5 -20 -86 -50
-180 l-55 -172 -39 0 c-43 0 -37 -10 -70 120 -6 25 -16 63 -22 85 l-11 40 -31
-120 -31 -120 -34 -3 c-18 -2 -37 0 -42 5 -13 13 -110 334 -103 344 3 5 21 9
39 9 29 0 36 -4 42 -27z m613 -452 c0 -14 -6 -17 -27 -13 -30 6 -53 -18 -53
-54 0 -22 4 -23 78 -26 l77 -3 0 -120 c0 -106 -2 -120 -17 -123 -16 -3 -18 7
-18 102 l0 106 -60 0 -60 0 0 -105 c0 -87 -3 -105 -15 -105 -12 0 -15 18 -15
104 0 100 -1 105 -22 108 -30 4 -34 26 -6 30 19 2 24 10 26 43 5 53 26 75 74
75 30 0 38 -4 38 -19z m580 -161 c0 -149 -2 -180 -14 -180 -8 0 -16 5 -18 11
-3 9 -9 9 -25 0 -27 -14 -78 -14 -104 -1 -28 16 -49 63 -49 115 0 52 21 99 49
115 25 13 87 13 112 0 18 -10 19 -7 19 55 0 51 3 65 15 65 13 0 15 -27 15
-180z m-770 129 c0 -12 -7 -19 -19 -19 -26 0 -36 17 -21 35 15 18 40 8 40 -16z
m268 3 c3 -16 -2 -22 -16 -22 -24 0 -35 23 -19 39 16 16 31 8 35 -17z m-428
-32 c0 -28 3 -30 35 -30 28 0 35 -4 35 -20 0 -16 -7 -20 -35 -20 l-35 0 0 -85
c0 -89 -1 -88 49 -89 33 -1 38 -24 7 -32 -40 -10 -76 4 -86 32 -6 14 -10 59
-10 100 0 67 -2 74 -20 74 -28 0 -25 28 3 32 17 2 23 11 25 36 4 42 32 44 32
2z m-502 -53 c3 -16 -1 -17 -31 -12 -35 7 -74 -6 -89 -29 -13 -19 -9 -111 6
-132 11 -15 26 -19 66 -18 41 0 50 -3 48 -15 -2 -12 -17 -17 -54 -19 -74 -4
-105 24 -112 101 -8 101 31 149 118 144 34 -1 46 -6 48 -20z m207 -2 c18 -18
25 -35 25 -65 l0 -40 -84 0 -85 0 10 -32 c14 -50 35 -61 102 -54 33 3 57 2 57
-4 0 -17 -38 -30 -89 -30 -73 0 -103 28 -109 103 -8 99 27 147 106 147 32 0
49 -6 67 -25z m105 11 c0 -12 4 -12 30 0 35 18 65 15 65 -6 0 -10 -12 -16 -32
-18 -17 -2 -36 -9 -42 -16 -6 -6 -11 -52 -13 -101 -3 -76 -6 -90 -20 -93 -16
-3 -18 8 -18 122 0 105 2 126 15 126 8 0 15 -6 15 -14z m340 -111 c0 -104 -2
-125 -15 -125 -13 0 -15 21 -15 125 0 104 2 125 15 125 13 0 15 -21 15 -125z
m505 100 c18 -18 25 -35 25 -65 l0 -40 -84 0 -85 0 10 -32 c14 -50 35 -61 102
-54 58 6 74 -4 38 -24 -25 -13 -107 -13 -132 0 -43 23 -65 130 -38 183 31 61
119 78 164 32z m935 -495 c0 -7 -493 -10 -1460 -10 -967 0 -1460 3 -1460 10 0
7 493 10 1460 10 967 0 1460 -3 1460 -10z m-1150 -270 c40 -40 13 -100 -43
-100 -39 0 -67 26 -67 61 0 53 71 78 110 39z m-800 -180 l0 -180 25 0 c22 0
25 -4 25 -39 0 -44 -10 -51 -75 -51 -27 0 -51 7 -66 19 -24 19 -24 23 -27 225
l-3 206 60 0 61 0 0 -180z m-586 150 c23 -8 26 -15 26 -55 l0 -44 -32 5 c-18
3 -42 7 -52 9 -35 7 -76 -6 -76 -25 0 -13 19 -26 70 -45 82 -31 120 -70 120
-121 0 -97 -59 -144 -184 -144 -41 0 -86 4 -100 10 -23 8 -26 15 -26 55 l0 46
35 -6 c19 -3 50 -7 69 -10 40 -6 89 10 84 28 -5 13 -23 23 -111 61 -46 20 -61
32 -72 60 -19 45 -19 70 0 110 24 50 77 75 157 76 37 0 78 -4 92 -10z m1164
-62 c3 -36 5 -38 38 -38 34 0 34 0 34 -45 0 -45 0 -45 -35 -45 l-36 0 3 -67 3
-68 38 -3 c35 -3 37 -5 37 -38 0 -28 -5 -36 -27 -45 -16 -6 -50 -9 -77 -6 -38
3 -55 11 -73 31 -20 24 -23 38 -23 112 0 77 -2 84 -20 84 -17 0 -20 7 -20 40
0 33 3 40 20 40 13 0 22 9 26 28 14 65 13 63 62 60 46 -3 47 -3 50 -40z m-819
-56 c67 -50 88 -135 53 -215 -27 -61 -69 -87 -140 -87 -108 0 -165 56 -165
160 0 74 24 118 83 148 53 27 128 25 169 -6z m1360 0 c43 -32 62 -66 67 -123
4 -44 1 -63 -18 -99 -31 -61 -74 -82 -155 -78 -55 4 -67 8 -97 37 -54 52 -66
146 -28 217 36 68 167 94 231 46z m381 13 c20 -10 32 -27 39 -53 12 -41 15
-172 5 -221 -6 -30 -7 -31 -65 -31 l-59 0 0 115 c0 120 -2 125 -44 109 -13 -5
-16 -25 -16 -115 l0 -109 -60 0 -60 0 0 155 0 155 50 0 c38 0 50 -4 50 -15 0
-13 4 -14 22 -4 56 30 98 35 138 14z m276 4 c49 -13 60 -26 50 -63 -6 -23 -9
-24 -66 -19 -73 7 -80 -8 -15 -33 101 -38 125 -106 61 -170 -31 -31 -39 -34
-94 -34 -32 0 -73 5 -91 11 -28 10 -31 15 -31 50 0 38 1 39 28 32 39 -11 105
-10 109 2 2 6 -24 22 -57 37 -61 27 -80 51 -80 102 0 33 36 74 73 85 44 13 61
13 113 0z m-1574 -111 l3 -113 27 -3 27 -3 3 113 3 113 60 0 60 0 3 -152 3
-153 -56 0 c-30 0 -55 4 -55 9 0 6 -16 3 -35 -5 -42 -17 -104 -18 -127 0 -30
22 -38 64 -38 187 l0 119 60 0 59 0 3 -112z m608 -43 l0 -155 -60 0 -60 0 0
148 c0 82 3 152 7 155 3 4 30 7 60 7 l53 0 0 -155z m-162 -301 c45 -31 17
-104 -41 -104 -39 0 -67 26 -67 61 0 31 31 59 65 59 11 0 31 -7 43 -16z m-358
-78 l0 -75 35 15 c55 22 93 18 126 -15 l29 -29 0 -131 0 -131 -60 0 -60 0 0
109 c0 66 -4 112 -11 116 -5 4 -21 4 -35 1 -24 -6 -24 -8 -24 -116 l0 -110
-60 0 -60 0 0 213 c0 118 3 217 7 220 3 4 30 7 60 7 l53 0 0 -74z m-767 -143
c36 -104 69 -196 73 -206 6 -16 0 -18 -62 -15 l-68 3 -9 38 -9 37 -59 0 -58 0
-12 -40 -12 -40 -65 0 c-47 0 -63 3 -60 13 3 6 35 99 73 205 l68 192 67 0 67
0 66 -187z m1335 125 c3 -36 5 -38 38 -38 34 0 34 0 34 -45 0 -45 0 -45 -34
-45 l-34 0 -4 -57 c-4 -67 8 -88 45 -81 26 5 27 3 27 -37 0 -42 -1 -43 -41
-49 -52 -8 -114 9 -134 37 -10 15 -15 46 -15 104 0 77 -1 82 -22 85 -19 2 -23
9 -23 38 0 28 4 36 21 38 17 2 25 14 33 48 l12 45 47 -3 c47 -3 47 -3 50 -40z
m852 2 l0 -40 40 0 40 0 0 -40 0 -40 -40 0 -40 0 0 -63 c0 -70 10 -87 53 -87
26 0 28 -2 25 -37 -3 -33 -7 -38 -37 -46 -44 -11 -93 -2 -123 22 -20 17 -24
30 -28 113 -5 88 -6 93 -28 96 -19 3 -23 9 -20 35 2 24 8 33 25 35 17 3 24 12
29 40 9 51 10 52 60 52 l44 0 0 -40z m-1599 -51 c13 -7 19 -21 19 -45 l0 -35
-49 7 c-41 5 -52 3 -70 -15 -25 -25 -28 -77 -5 -110 14 -20 23 -22 68 -19 51
3 51 3 54 -28 4 -45 -18 -59 -99 -59 -53 0 -74 5 -96 21 -78 57 -85 194 -12
261 44 40 137 51 190 22z m1089 -7 c33 -25 55 -88 46 -135 l-7 -37 -85 0 c-64
0 -85 -3 -82 -12 11 -34 91 -45 151 -22 14 5 17 0 17 -35 0 -39 -1 -41 -42
-52 -58 -15 -142 -7 -176 18 -81 59 -83 216 -3 272 14 10 35 21 46 24 34 10
109 -2 135 -21z m-1465 -2 c6 -20 6 -20 34 1 17 13 39 19 57 17 28 -3 29 -5
29 -53 0 -44 -2 -50 -19 -47 -11 2 -34 1 -53 -3 l-33 -6 0 -99 0 -100 -60 0
-60 0 0 155 0 155 49 0 c41 0 51 -4 56 -20z m925 -135 l0 -155 -60 0 -60 0 0
148 c0 82 3 152 7 155 3 4 30 7 60 7 l53 0 0 -155z m864 149 c11 -4 16 -19 16
-45 l0 -38 -47 5 c-66 8 -88 -10 -88 -69 0 -64 17 -80 82 -75 l53 5 0 -38 c0
-36 -2 -39 -42 -50 -44 -12 -100 -7 -143 13 -42 19 -65 67 -65 137 0 112 48
161 157 161 34 0 68 -3 77 -6z m416 -634 c0 -7 -492 -10 -1456 -10 -967 0
-1453 3 -1449 10 4 7 500 10 1456 10 959 0 1449 -3 1449 -10z m-2286 -313 c10
-7 17 -22 15 -32 -4 -16 -12 -19 -53 -16 -56 3 -61 -16 -8 -33 74 -25 95 -84
47 -131 -19 -20 -34 -25 -74 -25 -65 0 -81 7 -81 36 0 22 4 24 56 24 61 0 70
17 18 33 -63 20 -90 69 -63 118 19 37 107 52 143 26z m274 7 c16 -5 22 -14 22
-33 0 -25 -2 -26 -45 -23 -59 5 -59 -13 0 -38 55 -24 73 -56 56 -98 -15 -35
-48 -52 -101 -52 -55 0 -70 8 -70 39 0 25 2 26 51 22 63 -4 62 9 -1 41 -40 21
-45 27 -48 61 -2 21 2 45 10 54 24 29 76 40 126 27z m322 -9 c44 -23 60 -53
60 -113 0 -48 -4 -58 -34 -88 -28 -28 -42 -34 -75 -34 -82 0 -127 46 -125 127
2 95 92 151 174 108z m338 9 c16 -5 22 -14 22 -35 0 -26 -2 -27 -34 -22 -41 6
-76 -23 -76 -64 0 -39 27 -63 72 -63 33 0 38 -3 38 -24 0 -60 -139 -45 -168
19 -17 38 -15 116 4 144 28 39 89 59 142 45z m-1223 -114 c21 -60 37 -113 36
-117 0 -4 -16 -8 -33 -8 -25 0 -36 6 -43 23 -15 33 -70 31 -79 -3 -5 -21 -12
-25 -41 -25 -19 0 -35 4 -35 8 0 9 50 156 69 205 9 23 16 27 50 27 l39 0 37
-110z m1435 -5 l0 -115 -35 0 -35 0 0 115 0 115 35 0 35 0 0 -115z m301 5 c21
-58 38 -108 38 -112 1 -5 -16 -8 -38 -8 -30 0 -40 4 -44 20 -4 15 -14 20 -37
20 -23 0 -33 -5 -37 -20 -4 -16 -14 -20 -44 -20 l-38 0 40 110 c21 61 39 113
39 116 0 3 19 4 42 2 l41 -3 38 -105z m329 85 c0 -22 -4 -25 -35 -25 l-35 0 0
-90 0 -90 -35 0 -35 0 0 90 0 90 -35 0 c-31 0 -35 3 -35 25 l0 25 105 0 105 0
0 -25z m270 0 c0 -23 -3 -25 -50 -25 -43 0 -50 -3 -50 -20 0 -17 7 -20 40 -20
36 0 40 -2 40 -25 0 -22 -4 -25 -40 -25 -33 0 -40 -3 -40 -20 0 -17 7 -20 50
-20 47 0 50 -2 50 -25 0 -25 -1 -25 -85 -25 l-85 0 0 115 0 115 85 0 c84 0 85
0 85 -25z"/>
<path d="M2302 4754 c-29 -20 -30 -69 -1 -84 43 -24 119 21 119 70 0 31 -80
41 -118 14z"/>
<path d="M3651 4351 c-16 -16 -21 -33 -21 -76 0 -71 25 -100 77 -92 54 9 63
22 63 92 0 70 -9 83 -63 92 -27 4 -39 1 -56 -16z"/>
<path d="M2462 4354 c-12 -8 -22 -24 -22 -35 0 -17 7 -19 66 -19 63 0 65 1 59
23 -14 46 -61 60 -103 31z"/>
<path d="M3412 4354 c-12 -8 -22 -24 -22 -35 0 -17 7 -19 66 -19 63 0 65 1 58
23 -3 12 -11 28 -16 35 -14 17 -59 15 -86 -4z"/>
<path d="M2152 3388 c-7 -7 -12 -37 -12 -70 0 -46 4 -59 19 -67 27 -15 51 8
57 54 8 65 -31 116 -64 83z"/>
<path d="M3512 3388 c-18 -18 -15 -113 4 -132 19 -20 28 -20 43 -3 19 23 24
73 11 111 -12 37 -35 47 -58 24z"/>
<path d="M1879 2810 l-16 -60 34 0 c31 0 33 2 27 28 -4 15 -12 42 -18 60 l-11
32 -16 -60z"/>
<path d="M3598 2809 c-33 -19 -21 -39 22 -39 44 0 55 21 21 40 -23 12 -22 12
-43 -1z"/>
<path d="M2672 1878 c-16 -16 -16 -90 0 -106 7 -7 21 -12 33 -12 12 0 26 5 33
12 15 15 16 72 2 99 -12 21 -50 25 -68 7z"/>
<path d="M1787 1839 c-10 -35 -9 -39 8 -39 16 0 18 14 6 44 -7 18 -8 18 -14
-5z"/>
<path d="M3518 1825 c-4 -20 -1 -25 14 -25 14 0 18 5 14 16 -3 9 -6 20 -6 25
0 20 -18 7 -22 -16z"/>
</g>
</svg>
